<?xml version="1.0" encoding="iso-8859-1"?>
<!-- Generator: Adobe Illustrator 19.0.0, SVG Export Plug-In . SVG Version: 6.00 Build 0)  -->
<svg version="1.1" id="Capa_1" xmlns="http://www.w3.org/2000/svg" xmlns:xlink="http://www.w3.org/1999/xlink" x="0px" y="0px"
	 viewBox="0 0 480 480" style="enable-background:new 0 0 480 480;" xml:space="preserve">
<path style="fill:#344496;" d="M64,480c0-30.928,25.072-56,56-56h88v-32h64v32h88c30.928,0,56,25.072,56,56H64z"/>
<path style="fill:#B6DEDC;" d="M120,96h240v304H120V96z"/>
<path style="fill:#66D3CB;" d="M120,400h240V96L120,400z"/>
<g>
	<path style="fill:#344496;" d="M136,120h120v16H136V120z"/>
	<path style="fill:#344496;" d="M272,120h72v16h-72V120z"/>
	<path style="fill:#344496;" d="M136,160h80v16h-80V160z"/>
	<path style="fill:#344496;" d="M232,160h112v16H232V160z"/>
	<path style="fill:#344496;" d="M136,200h24v16h-24V200z"/>
	<path style="fill:#344496;" d="M176,200h168v16H176V200z"/>
	<path style="fill:#344496;" d="M176,320h168v16H176V320z"/>
	<path style="fill:#344496;" d="M136,320h24v16h-24V320z"/>
	<path style="fill:#344496;" d="M216,280h128v16H216V280z"/>
	<path style="fill:#344496;" d="M136,280h64v16h-64V280z"/>
	<path style="fill:#344496;" d="M272,240h72v16h-72V240z"/>
	<path style="fill:#344496;" d="M136,240h120v16H136V240z"/>
	<path style="fill:#344496;" d="M136,360h72v16h-72V360z"/>
	<path style="fill:#344496;" d="M224,360h120v16H224V360z"/>
</g>
<path style="fill:#FCD821;" d="M96,96L72,72H0V0h128v72h-24L96,96z"/>
<path style="fill:#EC322C;" d="M384,96l24-24h72V0H352v72h24L384,96z"/>
<g>
	<path style="fill:#344496;" d="M376,24h48v16h-48V24z"/>
	<path style="fill:#344496;" d="M440,24h16v16h-16V24z"/>
	<path style="fill:#344496;" d="M24,24h24v16H24V24z"/>
	<path style="fill:#344496;" d="M64,24h40v16H64V24z"/>
</g>
<g>
</g>
<g>
</g>
<g>
</g>
<g>
</g>
<g>
</g>
<g>
</g>
<g>
</g>
<g>
</g>
<g>
</g>
<g>
</g>
<g>
</g>
<g>
</g>
<g>
</g>
<g>
</g>
<g>
</g>
</svg>
