<svg id="Capa_1" enable-background="new 0 0 501 501" height="512" viewBox="0 0 501 501" width="512" xmlns="http://www.w3.org/2000/svg"><path d="m417.989 434.309c-42.694 37.655-98.609 60.668-159.889 61.182-135.101 1.135-247.1-109.886-247.1-244.992 0-135.309 109.69-244.999 245-244.999 61.104 0 116.984 22.37 159.897 59.366 6.471 5.579 7.093 15.339 1.373 21.686-39.123 43.418-62.936 100.902-62.936 163.948 0 63.991 24.533 122.253 64.707 165.891 4.77 5.182 4.231 13.259-1.052 17.918z" fill="#df3d9b"/><path d="m170 64.5v370h-150c-11.046 0-20-8.954-20-20v-330c0-11.046 8.954-20 20-20z" fill="#acd1fd"/><path d="m501 250.5c0 73.311-32.2 139.101-83.227 184h-367.773c-11.046 0-20-8.954-20-20v-330c0-11.046 8.954-20 20-20h365.471c52.359 44.933 85.529 111.593 85.529 186z" fill="#c7eefd"/><path d="m30 275.5c-5.523 0-10-4.477-10-10v-30c0-5.523 4.477-10 10-10 5.523 0 10 4.477 10 10v30c0 5.523-4.477 10-10 10z" fill="#69c3da"/><path d="m451.848 397.726h-151.834c-.005 0-.01 0-.014 0h-230c-5.523 0-10-4.477-10-10v-274.452c0-5.523 4.477-10 10-10h230 .014 151.833c30.861 40.986 49.153 91.97 49.153 147.226s-18.292 106.24-49.152 147.226z" fill="#003278"/><path d="m380 204.5c5.523 0 10 4.477 10 10v60c0 5.523-4.477 10-10 10-5.523 0-10-4.477-10-10v-60c0-5.523 4.477-10 10-10zm-90 40v30c0 5.523 4.477 10 10 10 5.523 0 10-4.477 10-10v-30c0-5.523-4.477-10-10-10-5.523 0-10 4.477-10 10zm0-80c5.523 0 10-4.477 10-10 0-5.523-4.477-10-10-10-5.523 0-10 4.477-10 10 0 5.523 4.477 10 10 10zm-30 0c5.523 0 10-4.477 10-10 0-5.523-4.477-10-10-10-5.523 0-10 4.477-10 10 0 5.523 4.477 10 10 10zm-30 0c5.523 0 10-4.477 10-10 0-5.523-4.477-10-10-10-5.523 0-10 4.477-10 10 0 5.523 4.477 10 10 10zm-132.5 175h145c4.142 0 7.5-3.358 7.5-7.5 0-4.142-3.358-7.5-7.5-7.5h-145c-4.142 0-7.5 3.358-7.5 7.5 0 4.142 3.358 7.5 7.5 7.5zm0 30h145c4.142 0 7.5-3.358 7.5-7.5 0-4.142-3.358-7.5-7.5-7.5h-145c-4.142 0-7.5 3.358-7.5 7.5 0 4.142 3.358 7.5 7.5 7.5zm200-30h145c4.142 0 7.5-3.358 7.5-7.5 0-4.142-3.358-7.5-7.5-7.5h-145c-4.142 0-7.5 3.358-7.5 7.5 0 4.142 3.358 7.5 7.5 7.5zm0 30h145c4.142 0 7.5-3.358 7.5-7.5 0-4.142-3.358-7.5-7.5-7.5h-145c-4.142 0-7.5 3.358-7.5 7.5 0 4.142 3.358 7.5 7.5 7.5z" fill="#0055c7"/><path d="m175 254.5c-5.523 0-10-4.478-10-10s4.477-10 10-10c13.785 0 25-11.215 25-25s-11.215-25-25-25-25 11.215-25 25c0 5.522-4.477 10-10 10s-10-4.478-10-10c0-24.813 20.187-45 45-45s45 20.187 45 45-20.187 45-45 45zm165-90c-5.523 0-10 4.477-10 10v100c0 5.523 4.477 10 10 10 5.523 0 10-4.477 10-10v-100c0-5.523-4.477-10-10-10zm130 10v100c0 5.523-4.477 10-10 10-5.523 0-10-4.477-10-10v-100c0-5.523 4.477-10 10-10 5.523 0 10 4.477 10 10z" fill="#0ed1b2"/><path d="m175 294.5c-46.869 0-85-38.131-85-85s38.131-85 85-85c5.523 0 10 4.478 10 10s-4.477 10-10 10c-35.841 0-65 29.159-65 65s29.159 65 65 65 65-29.159 65-65c0-5.522 4.477-10 10-10s10 4.478 10 10c0 46.869-38.131 85-85 85zm245-170c-5.523 0-10 4.477-10 10v140c0 5.523 4.477 10 10 10 5.523 0 10-4.477 10-10v-140c0-5.523-4.477-10-10-10zm-322.5 215h65c4.142 0 7.5-3.358 7.5-7.5 0-4.142-3.358-7.5-7.5-7.5h-65c-4.142 0-7.5 3.358-7.5 7.5 0 4.142 3.358 7.5 7.5 7.5zm-7.5 22.5c0-4.142 3.358-7.5 7.5-7.5h105c4.142 0 7.5 3.358 7.5 7.5 0 4.142-3.358 7.5-7.5 7.5h-105c-4.142 0-7.5-3.358-7.5-7.5zm200-30c0-4.142 3.358-7.5 7.5-7.5h95c4.142 0 7.5 3.358 7.5 7.5 0 4.142-3.358 7.5-7.5 7.5h-95c-4.142 0-7.5-3.358-7.5-7.5zm0 30c0-4.142 3.358-7.5 7.5-7.5h35c4.142 0 7.5 3.358 7.5 7.5 0 4.142-3.358 7.5-7.5 7.5h-35c-4.142 0-7.5-3.358-7.5-7.5z" fill="#5affb7"/></svg>