<svg height="512pt" viewBox="0 0 512 512" width="512pt" xmlns="http://www.w3.org/2000/svg"><path d="m512 256c0 141.386719-114.613281 256-256 256s-256-114.613281-256-256 114.613281-256 256-256 256 114.613281 256 256zm0 0" fill="#2d5396"/><path d="m504.644531 317.097656-90.761719-90.761718-6.3125 14.792968-145.570312-145.570312-124.824219 81.421875 46.839844 46.839843-10.84375-3.179687 39.574219 39.578125-129.175782 91.15625 160.332032 160.332031c4.011718.1875 8.042968.292969 12.097656.292969 120.328125 0 221.246094-83.023438 248.644531-194.902344zm0 0" fill="#1b3b6b"/><path d="m337.460938 351.375-8.308594-38.484375c-4.011719-18.582031-17.300782-33.792969-35.179688-40.261719l-30.070312-10.882812c-12.355469-4.472656-21.894532-14.480469-25.773438-27.03125l-5.761718-18.660156h-43.703126l-5.761718 18.660156c-3.878906 12.550781-13.417969 22.558594-25.773438 27.027344l-30.070312 10.882812c-17.878906 6.46875-31.167969 21.679688-35.179688 40.261719l-8.308594 38.484375zm0 0" fill="#78beff"/><path d="m329.152344 312.890625c-4.011719-18.582031-17.300782-33.792969-35.179688-40.261719l-30.070312-10.882812c-12.355469-4.472656-21.894532-14.480469-25.773438-27.03125l-5.761718-18.660156h-22.484376v135.320312h127.578126zm0 0" fill="#78beff"/><path d="m278.214844 134.808594c-4.230469-36.472656-32.914063-64.695313-67.699219-64.695313s-63.472656 28.222657-67.703125 64.695313c-9.730469 2.414062-15.234375 15.011718-12.304688 28.414062 2.625 12.003906 11.125 20.601563 19.945313 20.925782 11.546875 29.285156 34.113281 54.878906 60.0625 54.878906s48.511719-25.59375 60.058594-54.878906c8.824219-.324219 17.324219-8.921876 19.949219-20.925782 2.925781-13.402344-2.574219-26-12.308594-28.414062zm0 0" fill="#abddff"/><path d="m278.214844 134.808594c-4.230469-36.472656-32.914063-64.695313-67.699219-64.695313-.214844 0-.421875.015625-.636719.019531v168.875c.214844.003907.421875.019532.636719.019532 25.949219 0 48.511719-25.59375 60.058594-54.878906 8.824219-.324219 17.324219-8.921876 19.949219-20.925782 2.925781-13.402344-2.574219-26-12.308594-28.414062zm0 0" fill="#78beff"/><path d="m444.277344 304.957031c0 64.554688-52.328125 116.882813-116.878906 116.882813-64.554688 0-116.882813-52.328125-116.882813-116.882813 0-64.550781 52.328125-116.882812 116.882813-116.882812 64.550781 0 116.878906 52.332031 116.878906 116.882812zm0 0" fill="#ffe000"/><path d="m327.398438 188.074219c-.085938 0-.171876.003906-.257813.003906v233.757813c.085937 0 .171875.003906.257813.003906 64.550781 0 116.878906-52.332032 116.878906-116.882813s-52.328125-116.882812-116.878906-116.882812zm0 0" fill="#ffc200"/><path d="m311.007812 372.160156-60.078124-60.082031 31.816406-31.820313 28.261718 28.261719 64.5625-64.566406 31.824219 31.820313zm0 0" fill="#ff583e"/><path d="m375.570312 243.953125-48.425781 48.433594v63.636719l80.25-80.25zm0 0" fill="#f92814"/></svg>