<svg width="340" height="527" viewBox="0 0 340 527" fill="none" xmlns="http://www.w3.org/2000/svg">
<path fill-rule="evenodd" clip-rule="evenodd" d="M115.201 365C122.201 365 143.201 389 157.201 327C162.201 303 166.201 272 166.201 246C158.201 242 158.201 229 165.201 224C178.201 214 194.201 231 185.201 243C182.201 248 182.201 243 183.201 257C184.201 283 189.201 347 207.201 365C210.201 367 214.201 369 219.201 369C224.201 369 230.201 366 232.201 366L233.201 375C226.201 377 223.201 380 214.201 380C205.201 380 202.201 376 199.201 371C189.201 354 183.201 313 181.201 293C181.201 286 180.201 279 179.201 271C179.201 264 179.201 256 178.201 249H171.201C169.201 277 164.201 347 149.201 371C146.201 377 142.201 380 134.201 380C128.201 380 118.201 377 116.201 374C113.201 374 115.201 374 114.201 376L113.201 400C113.201 405 112.201 423 112.201 427H236.201L233.201 374C239.201 371 247.201 362 251.201 356C255.201 351 262.201 340 264.201 334C264.201 335 243.201 363 232.201 365L231.201 338C231.201 337 237.201 333 230.201 328L224.201 231C226.201 228 234.201 224 235.201 221L251.201 173C254.201 163 258.201 152 261.201 141C264.201 135 275.201 118 276.201 114L247.201 96C247.201 93 251.201 88 252.201 86L221.201 53C221.201 51 223.201 48 224.201 46C223.201 45 194.201 21 193.201 21C190.201 22 189.201 26 185.201 28C183.201 28 184.201 28 181.201 25C179.201 24 178.201 23 176.201 22C173.201 19 171.201 17 168.201 14C163.201 11 153.201 1 150.201 0C148.201 4 143.201 9 140.201 13C136.201 18 110.201 51 109.201 54L146.201 76C149.201 74 178.201 37 182.201 33C181.201 36 152.201 75 151.201 79C156.201 81 183.201 98 186.201 99L218.201 56C214.201 65 191.201 97 191.201 102L203.201 109C200.201 109 188.201 103 185.201 101C180.201 99 171.201 94 167.201 93C166.201 98 169.201 103 171.201 106C173.201 108 174.201 109 176.201 111C177.201 113 179.201 114 180.201 116C176.201 114 171.201 109 169.201 107C164.201 102 163.201 99 165.201 92C164.201 91 158.201 88 156.201 87C153.201 85 150.201 83 147.201 81L127.201 70L126.201 73C125.201 73 125.201 74 124.201 75C123.201 77 120.201 80 117.201 82C116.201 83 114.201 84 113.201 85C113.201 84 118.201 79 119.201 78C121.201 75 125.201 72 126.201 69L124.201 68C122.201 70 118.201 78 110.201 81C112.201 78 121.201 70 122.201 66C116.201 62 103.201 53 100.201 49C99.2014 49 99.2014 49 99.2014 49L98.2014 50C97.2014 51 97.2014 52 97.2014 52L78.2014 78C65.2014 96 69.2014 89 60.2014 110C57.2014 115 54.2014 121 51.2014 127C46.2014 137 47.2014 134 53.2014 143C60.2014 153 68.2014 163 74.2014 172C87.2014 191 103.201 214 116.201 231C119.201 235 118.201 236 118.201 241V280C118.201 289 116.201 324 116.201 328C122.201 328 123.201 331 122.201 336C120.201 341 137.201 358 138.201 361C133.201 365 125.201 366 121.201 363C120.201 359 121.201 353 120.201 348C120.201 342 120.201 338 116.201 338C115.201 343 114.201 360 115.201 365ZM209.201 360C212.201 365 221.201 365 226.201 363C226.201 359 226.201 341 230.201 337V329C222.201 329 225.201 335 225.201 336C226.201 339 218.201 350 216.201 353L211.201 358C210.201 359 210.201 359 209.201 360ZM207.201 143C204.201 143 191.201 133 187.201 130C182.201 126 183.201 129 173.201 128C158.201 127 140.201 117 128.201 108C125.201 106 122.201 104 119.201 101C117.201 102 104.201 113 103.201 114C105.201 115 108.201 116 110.201 116L128.201 124C151.201 136 171.201 159 170.201 189L169.201 199C173.201 198 180.201 194 184.201 192C189.201 190 195.201 188 199.201 186C206.201 183 226.201 173 230.201 172C228.201 169 209.201 156 207.201 155C207.201 147 244.201 100 248.201 92C246.201 94 220.201 127 217.201 130L207.201 143Z" fill="#020202"/>
<path fill-rule="evenodd" clip-rule="evenodd" d="M283.201 318C282.201 321 277.201 327 276.201 330C263.201 351 252.201 372 245.201 395C243.201 401 237.201 421 239.201 427C254.201 427 250.201 428 251.201 420C252.201 409 254.201 398 257.201 388C262.201 366 271.201 344 282.201 325C283.201 322 285.201 318 287.201 317C297.201 313 292.201 304 286.201 303C281.201 303 274.201 309 282.201 317C283.201 317 283.201 318 283.201 318Z" fill="#020202"/>
<path fill-rule="evenodd" clip-rule="evenodd" d="M98.2015 427H110.202C112.202 407 90.2015 362 80.2015 343C76.2015 335 71.2016 327 66.2016 319C68.2016 316 71.2016 317 71.2016 311C71.2016 308 68.2016 305 65.2016 304C58.2016 303 54.2016 312 60.2016 317C61.2016 318 62.2016 318 63.2016 319C64.2016 320 65.2016 322 66.2016 323C82.2016 351 93.2015 382 97.2015 415C97.2015 418 97.2015 423 98.2015 427Z" fill="#020202"/>
<path fill-rule="evenodd" clip-rule="evenodd" d="M114.201 372V364C109.201 362 101.201 355 98.2012 351C93.2012 346 86.2012 336 84.2012 335C87.2012 343 98.2012 358 104.201 365C106.201 367 111.201 372 114.201 372Z" fill="#040404"/>
<path d="M14.2529 460.234L30.5225 500.84L46.792 460.234H55.3027V510H48.7402V490.62L49.3555 469.702L33.0176 510H27.9932L11.6895 469.805L12.3389 490.62V510H5.77637V460.234H14.2529ZM96.3662 460.234L112.636 500.84L128.905 460.234H137.416V510H130.854V490.62L131.469 469.702L115.131 510H110.106L93.8027 469.805L94.4521 490.62V510H87.8896V460.234H96.3662ZM170.003 510V460.234H184.051C188.38 460.234 192.208 461.191 195.535 463.105C198.862 465.02 201.425 467.743 203.226 471.274C205.049 474.806 205.971 478.862 205.994 483.442V486.621C205.994 491.315 205.083 495.428 203.26 498.96C201.46 502.492 198.873 505.203 195.501 507.095C192.151 508.986 188.243 509.954 183.777 510H170.003ZM176.565 465.635V504.634H183.47C188.528 504.634 192.459 503.062 195.262 499.917C198.087 496.772 199.5 492.295 199.5 486.484V483.579C199.5 477.928 198.167 473.542 195.501 470.42C192.858 467.275 189.098 465.68 184.222 465.635H176.565ZM236.94 510V460.234H253.21C258.61 460.234 262.666 461.351 265.378 463.584C268.112 465.817 269.479 469.121 269.479 473.496C269.479 475.82 268.819 477.882 267.497 479.683C266.175 481.46 264.375 482.839 262.097 483.818C264.785 484.57 266.905 486.006 268.454 488.125C270.026 490.221 270.812 492.728 270.812 495.645C270.812 500.111 269.366 503.62 266.472 506.172C263.578 508.724 259.488 510 254.201 510H236.94ZM243.503 486.724V504.634H254.338C257.391 504.634 259.795 503.848 261.55 502.275C263.327 500.68 264.216 498.493 264.216 495.713C264.216 489.72 260.957 486.724 254.44 486.724H243.503ZM243.503 481.46H253.415C256.286 481.46 258.576 480.742 260.285 479.307C262.017 477.871 262.883 475.923 262.883 473.462C262.883 470.728 262.085 468.745 260.49 467.515C258.895 466.261 256.468 465.635 253.21 465.635H243.503V481.46ZM308.116 490.518V510H301.554V460.234H319.908C325.354 460.234 329.615 461.624 332.691 464.404C335.79 467.184 337.34 470.864 337.34 475.444C337.34 480.275 335.825 484.001 332.794 486.621C329.786 489.219 325.468 490.518 319.84 490.518H308.116ZM308.116 485.151H319.908C323.417 485.151 326.106 484.331 327.975 482.69C329.843 481.027 330.777 478.634 330.777 475.513C330.777 472.55 329.843 470.181 327.975 468.403C326.106 466.626 323.543 465.703 320.284 465.635H308.116V485.151Z" fill="black"/>
</svg>
