<?xml version="1.0" encoding="UTF-8"?>
<!DOCTYPE svg PUBLIC "-//W3C//DTD SVG 1.1//EN" "http://www.w3.org/Graphics/SVG/1.1/DTD/svg11.dtd">
<!-- Creator: CorelDRAW X7 -->
<svg xmlns="http://www.w3.org/2000/svg" xml:space="preserve" width="450px" height="450px" version="1.1" style="shape-rendering:geometricPrecision; text-rendering:geometricPrecision; image-rendering:optimizeQuality; fill-rule:evenodd; clip-rule:evenodd"
viewBox="0 0 450 450"
 xmlns:xlink="http://www.w3.org/1999/xlink">
 <defs>
  <style type="text/css">
   <![CDATA[
    .fil0 {fill:#020202}
    .fil1 {fill:#040404}
   ]]>
  </style>
 </defs>
 <g id="Layer_x0020_1">
  <metadata id="CorelCorpID_0Corel-Layer"/>
  <path class="fil0" d="M171 370c7,0 28,24 42,-38 5,-24 9,-55 9,-81 -8,-4 -8,-17 -1,-22 13,-10 29,7 20,19 -3,5 -3,0 -2,14 1,26 6,90 24,108 3,2 7,4 12,4 5,0 11,-3 13,-3l1 9c-7,2 -10,5 -19,5 -9,0 -12,-4 -15,-9 -10,-17 -16,-58 -18,-78 0,-7 -1,-14 -2,-22 0,-7 0,-15 -1,-22l-7 0c-2,28 -7,98 -22,122 -3,6 -7,9 -15,9 -6,0 -16,-3 -18,-6 -3,0 -1,0 -2,2l-1 24c0,5 -1,23 -1,27l124 0 -3 -53c6,-3 14,-12 18,-18 4,-5 11,-16 13,-22 0,1 -21,29 -32,31l-1 -27c0,-1 6,-5 -1,-10l-6 -97c2,-3 10,-7 11,-10l16 -48c3,-10 7,-21 10,-32 3,-6 14,-23 15,-27l-29 -18c0,-3 4,-8 5,-10l-31 -33c0,-2 2,-5 3,-7 -1,-1 -30,-25 -31,-25 -3,1 -4,5 -8,7 -2,0 -1,0 -4,-3 -2,-1 -3,-2 -5,-3 -3,-3 -5,-5 -8,-8 -5,-3 -15,-13 -18,-14 -2,4 -7,9 -10,13 -4,5 -30,38 -31,41l37 22c3,-2 32,-39 36,-43 -1,3 -30,42 -31,46 5,2 32,19 35,20l32 -43c-4,9 -27,41 -27,46l12 7c-3,0 -15,-6 -18,-8 -5,-2 -14,-7 -18,-8 -1,5 2,10 4,13 2,2 3,3 5,5 1,2 3,3 4,5 -4,-2 -9,-7 -11,-9 -5,-5 -6,-8 -4,-15 -1,-1 -7,-4 -9,-5 -3,-2 -6,-4 -9,-6l-20 -11 -1 3c-1,0 -1,1 -2,2 -1,2 -4,5 -7,7 -1,1 -3,2 -4,3 0,-1 5,-6 6,-7 2,-3 6,-6 7,-9l-2 -1c-2,2 -6,10 -14,13 2,-3 11,-11 12,-15 -6,-4 -19,-13 -22,-17 -1,0 -1,0 -1,0l-1 1c-1,1 -1,2 -1,2l-19 26c-13,18 -9,11 -18,32 -3,5 -6,11 -9,17 -5,10 -4,7 2,16 7,10 15,20 21,29 13,19 29,42 42,59 3,4 2,5 2,10l0 39c0,9 -2,44 -2,48 6,0 7,3 6,8 -2,5 15,22 16,25 -5,4 -13,5 -17,2 -1,-4 0,-10 -1,-15 0,-6 0,-10 -4,-10 -1,5 -2,22 -1,27zm94 -5c3,5 12,5 17,3 0,-4 0,-22 4,-26l0 -8c-8,0 -5,6 -5,7 1,3 -7,14 -9,17l-5 5c-1,1 -1,1 -2,2zm-2 -217c-3,0 -16,-10 -20,-13 -5,-4 -4,-1 -14,-2 -15,-1 -33,-11 -45,-20 -3,-2 -6,-4 -9,-7 -2,1 -15,12 -16,13 2,1 5,2 7,2l18 8c23,12 43,35 42,65l-1 10c4,-1 11,-5 15,-7 5,-2 11,-4 15,-6 7,-3 27,-13 31,-14 -2,-3 -21,-16 -23,-17 0,-8 37,-55 41,-63 -2,2 -28,35 -31,38l-10 13z"/>
  <path class="fil0" d="M339 323c-1,3 -6,9 -7,12 -13,21 -24,42 -31,65 -2,6 -8,26 -6,32 15,0 11,1 12,-7 1,-11 3,-22 6,-32 5,-22 14,-44 25,-63 1,-3 3,-7 5,-8 10,-4 5,-13 -1,-14 -5,0 -12,6 -4,14 0,0 0,0 0,0 1,0 1,1 1,1z"/>
  <path class="fil0" d="M154 432l12 0c2,-20 -20,-65 -30,-84 -4,-8 -9,-16 -14,-24 2,-3 5,-2 5,-8 0,-3 -3,-6 -6,-7 -7,-1 -11,8 -5,13 1,1 2,1 3,2 1,1 2,3 3,4 16,28 27,59 31,92 0,3 0,8 1,12z"/>
  <path class="fil1" d="M170 377l0 -8c-5,-2 -13,-9 -16,-13 -5,-5 -12,-15 -14,-16 3,8 14,23 20,30 2,2 7,7 10,7z"/>
 </g>
</svg>
