<svg width="1372" height="783" viewBox="0 0 1372 783" fill="none" xmlns="http://www.w3.org/2000/svg">
<path d="M6.5 121.5V713.5" stroke="#090B0F"/>
<rect y="218" width="12" height="415" fill="#090B0F"/>
<path d="M52.5 121.5V713.5" stroke="#090B0F"/>
<rect x="46" y="218" width="12" height="415" fill="#090B0F"/>
<path d="M95.5 140.5V732.5" stroke="#090B0F"/>
<rect x="89" y="237" width="12" height="415" fill="#090B0F"/>
<path d="M29.5 121V713" stroke="#090B0F"/>
<rect x="23" y="217.5" width="12" height="415" fill="#090B0F"/>
<path d="M75.5 140V732" stroke="#090B0F"/>
<rect x="69" y="236.5" width="12" height="415" fill="#090B0F"/>
<path d="M118.5 164V756" stroke="#090B0F"/>
<rect x="112" y="260.5" width="12" height="415" fill="#090B0F"/>
<path d="M141.5 164V756" stroke="#090B0F"/>
<rect x="135" y="260.5" width="12" height="415" fill="#090B0F"/>
<path d="M164.5 164V756" stroke="#090B0F"/>
<rect x="158" y="260.5" width="12" height="415" fill="#090B0F"/>
<path d="M187.5 191V783" stroke="#090B0F"/>
<rect x="181" y="287.5" width="12" height="415" fill="#090B0F"/>
<path d="M210.5 191V783" stroke="#090B0F"/>
<rect x="204" y="287.5" width="12" height="415" fill="#090B0F"/>
<path d="M233.5 173V765" stroke="#090B0F"/>
<rect x="227" y="269.5" width="12" height="415" fill="#090B0F"/>
<path d="M256.5 153V745" stroke="#090B0F"/>
<rect x="250" y="249.5" width="12" height="415" fill="#090B0F"/>
<path d="M279.5 153V745" stroke="#090B0F"/>
<rect x="273" y="249.5" width="12" height="415" fill="#090B0F"/>
<path d="M302.5 173V765" stroke="#090B0F"/>
<rect x="296" y="269.5" width="12" height="415" fill="#090B0F"/>
<path d="M325.5 191V783" stroke="#090B0F"/>
<rect x="319" y="287.5" width="12" height="415" fill="#090B0F"/>
<path d="M348.5 191V783" stroke="#090B0F"/>
<rect x="342" y="287.5" width="12" height="415" fill="#090B0F"/>
<path d="M371.5 191V783" stroke="#090B0F"/>
<rect x="365" y="287.5" width="12" height="415" fill="#090B0F"/>
<path d="M394.5 164V756" stroke="#090B0F"/>
<rect x="388" y="260.5" width="12" height="415" fill="#090B0F"/>
<path d="M417.5 164V756" stroke="#090B0F"/>
<rect x="411" y="260.5" width="12" height="415" fill="#090B0F"/>
<path d="M440.5 164V756" stroke="#090B0F"/>
<rect x="434" y="260.5" width="12" height="415" fill="#090B0F"/>
<path d="M463.5 140V732" stroke="#090B0F"/>
<rect x="457" y="236.5" width="12" height="415" fill="#090B0F"/>
<path d="M486.5 140V732" stroke="#090B0F"/>
<rect x="480" y="236.5" width="12" height="415" fill="#090B0F"/>
<path d="M509.5 121V713" stroke="#090B0F"/>
<rect x="503" y="217.5" width="12" height="415" fill="#090B0F"/>
<path d="M532.5 83V675" stroke="#090B0F"/>
<rect x="526" y="179.5" width="12" height="415" fill="#090B0F"/>
<path d="M555.5 64V656" stroke="#090B0F"/>
<rect x="549" y="160.5" width="12" height="415" fill="#090B0F"/>
<path d="M578.5 64V656" stroke="#090B0F"/>
<rect x="572" y="160.5" width="12" height="415" fill="#090B0F"/>
<path d="M601.5 35V627" stroke="#090B0F"/>
<rect x="595" y="131.5" width="12" height="415" fill="#090B0F"/>
<path d="M624.5 0V592" stroke="#090B0F"/>
<rect x="618" y="96.5" width="12" height="415" fill="#090B0F"/>
<path d="M647.5 0V592" stroke="#090B0F"/>
<rect x="641" y="96.5" width="12" height="415" fill="#090B0F"/>
<path d="M670.5 0V592" stroke="#090B0F"/>
<rect x="664" y="96.5" width="12" height="415" fill="#090B0F"/>
<path d="M693.5 0V592" stroke="#090B0F"/>
<rect x="687" y="96.5" width="12" height="415" fill="#090B0F"/>
<path d="M716.5 11V603" stroke="#090B0F"/>
<rect x="710" y="107.5" width="12" height="415" fill="#090B0F"/>
<path d="M739.5 35V627" stroke="#090B0F"/>
<rect x="733" y="131.5" width="12" height="415" fill="#090B0F"/>
<path d="M762.5 64V656" stroke="#090B0F"/>
<rect x="756" y="160.5" width="12" height="415" fill="#090B0F"/>
<path d="M785.5 64V656" stroke="#090B0F"/>
<rect x="779" y="160.5" width="12" height="415" fill="#090B0F"/>
<path d="M808.5 83V675" stroke="#090B0F"/>
<rect x="802" y="179.5" width="12" height="415" fill="#090B0F"/>
<path d="M831.5 125V717" stroke="#090B0F"/>
<rect x="825" y="221.5" width="12" height="415" fill="#090B0F"/>
<path d="M854.5 125V717" stroke="#090B0F"/>
<rect x="848" y="221.5" width="12" height="415" fill="#090B0F"/>
<path d="M877.5 140V732" stroke="#090B0F"/>
<rect x="871" y="236.5" width="12" height="415" fill="#090B0F"/>
<path d="M900.5 140V732" stroke="#090B0F"/>
<rect x="894" y="236.5" width="12" height="415" fill="#090B0F"/>
<path d="M923.5 165V757" stroke="#090B0F"/>
<rect x="917" y="261.5" width="12" height="415" fill="#090B0F"/>
<path d="M946.5 165V757" stroke="#090B0F"/>
<rect x="940" y="261.5" width="12" height="415" fill="#090B0F"/>
<path d="M969.5 186V778" stroke="#090B0F"/>
<rect x="963" y="282.5" width="12" height="415" fill="#090B0F"/>
<path d="M992.5 186V778" stroke="#090B0F"/>
<rect x="986" y="282.5" width="12" height="415" fill="#090B0F"/>
<path d="M1015.5 186V778" stroke="#090B0F"/>
<rect x="1009" y="282.5" width="12" height="415" fill="#090B0F"/>
<path d="M1038.5 186V778" stroke="#090B0F"/>
<rect x="1032" y="282.5" width="12" height="415" fill="#090B0F"/>
<path d="M1061.5 186V778" stroke="#090B0F"/>
<rect x="1055" y="282.5" width="12" height="415" fill="#090B0F"/>
<path d="M1084.5 165V757" stroke="#090B0F"/>
<rect x="1078" y="261.5" width="12" height="415" fill="#090B0F"/>
<path d="M1107.5 165V757" stroke="#090B0F"/>
<rect x="1101" y="261.5" width="12" height="415" fill="#090B0F"/>
<path d="M1130.5 122V714" stroke="#090B0F"/>
<rect x="1124" y="218.5" width="12" height="415" fill="#090B0F"/>
<path d="M1153.5 107V699" stroke="#090B0F"/>
<rect x="1147" y="203.5" width="12" height="415" fill="#090B0F"/>
<path d="M1176.5 103V695" stroke="#090B0F"/>
<rect x="1170" y="199.5" width="12" height="415" fill="#090B0F"/>
<path d="M1199.5 103V695" stroke="#090B0F"/>
<rect x="1193" y="199.5" width="12" height="415" fill="#090B0F"/>
<path d="M1228.5 99V691" stroke="#090B0F"/>
<rect x="1222" y="195.5" width="12" height="415" fill="#090B0F"/>
<path d="M1251.5 99V691" stroke="#090B0F"/>
<rect x="1245" y="195.5" width="12" height="415" fill="#090B0F"/>
<path d="M1274.5 99V691" stroke="#090B0F"/>
<rect x="1268" y="195.5" width="12" height="415" fill="#090B0F"/>
<path d="M1297.5 99V691" stroke="#090B0F"/>
<rect x="1291" y="195.5" width="12" height="415" fill="#090B0F"/>
<path d="M1320.5 99V691" stroke="#090B0F"/>
<rect x="1314" y="195.5" width="12" height="415" fill="#090B0F"/>
<path d="M1343.5 117V709" stroke="#090B0F"/>
<rect x="1337" y="213.5" width="12" height="415" fill="#090B0F"/>
<path d="M1366.5 117V709" stroke="#090B0F"/>
<rect x="1360" y="213.5" width="12" height="415" fill="#090B0F"/>
</svg>
