<svg width="1596" height="1200" viewBox="0 0 1596 1200" fill="none" xmlns="http://www.w3.org/2000/svg">
<rect width="1596" height="1200" fill="#E9E23E"/>
<mask id="mask0" mask-type="alpha" maskUnits="userSpaceOnUse" x="0" y="0" width="1596" height="1200">
<rect width="1596" height="1200" fill="#E6E9F3"/>
</mask>
<g mask="url(#mask0)">
<path d="M329.227 851.683C505.384 1013.41 756.328 977.917 935.633 788.662C1114.94 599.408 1078.98 303.3 871.043 180.919C663.103 58.5386 433.811 62.8895 264.638 243.94C95.4641 424.99 153.071 689.955 329.227 851.683Z" fill="#D2CB26"/>
<path d="M1336.74 1.14006C1431.79 53.371 1549.44 58.0121 1619.13 -28.2582C1688.81 -114.529 1675.37 -241.238 1589.1 -311.273C1502.83 -381.307 1382.85 -348.11 1306.72 -281.874C1230.58 -215.639 1241.7 -51.0908 1336.74 1.14006Z" fill="#4F4F4F"/>
<path d="M1687.91 588.178C1806.16 684.181 1806.25 841.729 1728.67 976.622C1651.09 1111.52 1519.42 1235.68 1427.55 1349.4C1335.69 1463.13 1165.91 1492.35 1040.07 1390.19C914.242 1288.04 894.632 1105.44 999.309 1001.75C1103.99 898.059 1188.44 741.703 1300.43 628.967C1412.41 516.231 1569.65 492.176 1687.91 588.178Z" fill="#4F4F4F"/>
<path d="M104.486 245.822C198.782 322.373 326.828 305.053 399.807 214.705C472.786 124.357 461.011 -24.9692 368.768 -81.3562C276.524 -137.743 140.668 -159.206 73.4465 -50.2389C6.22443 58.7284 10.1898 169.271 104.486 245.822Z" fill="#E9E365"/>
<path d="M393.835 936.342C423.743 960.621 464.364 955.117 487.522 926.447C510.68 897.778 506.956 850.403 477.697 832.521C448.439 814.638 405.343 807.839 384.01 842.415C362.677 876.991 363.927 912.062 393.835 936.342Z" fill="#A28000"/>
<path d="M527.557 847.06C516.217 851.315 512.041 863.494 516.441 875.968C520.841 888.443 535.009 893.629 545.308 887.03C555.607 880.431 560.688 869.949 556.424 858.122C552.161 846.295 538.897 842.806 527.557 847.06Z" fill="#A28000"/>
<path d="M452.101 248.416C471.742 264.361 498.418 260.746 513.627 241.919C528.835 223.091 526.389 191.979 507.174 180.235C487.96 168.492 459.658 164.026 445.649 186.733C431.639 209.44 432.46 232.471 452.101 248.416Z" fill="#8C7002"/>
<path d="M539.919 252.712C548.846 259.959 560.972 258.316 567.885 249.758C574.798 241.2 573.686 227.058 564.952 221.72C556.218 216.382 543.354 214.353 536.986 224.674C530.618 234.995 530.991 245.464 539.919 252.712Z" fill="#8C7002"/>
<path d="M-4.48058 703.323C67.3601 769.279 169.701 754.803 242.826 677.62C315.952 600.437 301.289 479.677 216.486 429.767C131.684 379.858 38.1731 381.633 -30.8204 455.47C-99.814 529.307 -76.3212 637.366 -4.48058 703.323Z" fill="#F4EE56"/>
<path d="M1437.33 597.316C1464.52 622.283 1503.26 616.804 1530.94 587.587C1558.62 558.37 1553.07 512.658 1520.97 493.765C1488.87 474.872 1453.47 475.544 1427.36 503.494C1401.24 531.444 1410.13 572.349 1437.33 597.316Z" fill="#F0C933"/>
<path d="M246.303 736.128C255.233 744.326 267.953 742.527 277.043 732.933C286.132 723.34 284.309 708.33 273.769 702.126C263.228 695.922 251.605 696.143 243.029 705.32C234.453 714.498 237.374 727.93 246.303 736.128Z" fill="#F0C933"/>
<path d="M1506.43 656.419C1515.36 664.617 1528.08 662.818 1537.17 653.224C1546.26 643.631 1544.44 628.621 1533.9 622.417C1523.36 616.213 1511.74 616.434 1503.16 625.612C1494.58 634.789 1497.5 648.221 1506.43 656.419Z" fill="#F0C933"/>
<path d="M280.131 681.597C284.596 685.697 290.956 684.797 295.501 680C300.046 675.203 299.134 667.698 293.864 664.597C288.594 661.495 282.782 661.605 278.494 666.194C274.206 670.783 275.666 677.498 280.131 681.597Z" fill="#F0C933"/>
<path d="M814.656 411.082C841.851 436.049 880.591 430.57 908.271 401.353C935.952 372.136 930.402 326.424 898.3 307.531C866.199 288.638 830.801 289.31 804.685 317.26C778.568 345.21 787.461 386.115 814.656 411.082Z" fill="#B4AE25"/>
<path d="M68.8054 347.185C77.735 355.384 90.4556 353.584 99.5448 343.991C108.634 334.397 106.811 319.387 96.2707 313.183C85.7299 306.98 74.1069 307.2 65.5312 316.378C56.9556 325.556 59.8758 338.987 68.8054 347.185Z" fill="#B4AE25"/>
<path d="M1321.67 850.185C1330.59 858.383 1343.32 856.584 1352.4 846.991C1361.49 837.397 1359.67 822.387 1349.13 816.183C1338.59 809.98 1326.97 810.2 1318.39 819.378C1309.82 828.556 1312.74 841.987 1321.67 850.185Z" fill="#B4AE25"/>
<path d="M799.238 443.148C793.096 453.609 797.496 465.709 808.746 472.627C819.996 479.545 834.263 474.637 838.124 463.011C841.985 451.385 839.354 440.033 828.616 433.532C817.878 427.031 805.38 432.687 799.238 443.148Z" fill="#B4AE25"/>
<path d="M1479.99 234.082C1507.18 259.049 1545.92 253.57 1573.6 224.353C1601.28 195.136 1595.73 149.424 1563.63 130.531C1531.53 111.638 1496.13 112.31 1470.02 140.26C1443.9 168.21 1452.79 209.115 1479.99 234.082Z" fill="#B4AE25"/>
<path d="M-121.026 1204.44C-14.6292 1290.81 155.204 1270.83 263.77 1164.25C372.337 1057.66 357.266 867.661 222.98 778.56C88.6928 689.459 -66.8218 701.147 -161.816 818.75C-256.811 936.352 -227.422 1118.06 -121.026 1204.44Z" fill="#B4AE25"/>
<path d="M1429.16 221.615C1515.43 291.649 1515.48 406.595 1458.87 505.018C1402.27 603.44 1306.19 694.04 1239.16 777.019C1172.14 859.997 1048.26 881.326 956.468 806.806C864.673 732.285 850.379 599.063 926.756 523.403C1003.13 447.743 1064.76 333.661 1146.47 251.402C1228.17 169.142 1342.89 151.581 1429.16 221.615Z" fill="#B4AE25"/>
<path d="M995.933 199.806C1032.67 233.53 1084.99 226.129 1122.38 186.665C1159.77 147.2 1152.28 85.4544 1108.92 59.9349C1065.55 34.4154 1017.74 35.3227 982.464 73.0762C947.187 110.83 959.2 166.082 995.933 199.806Z" fill="#B6B928"/>
<path d="M-278.354 868.445C-177.693 960.861 -34.2962 940.579 68.1637 832.434C170.624 724.288 150.078 555.084 31.2553 485.152C-87.5675 415.22 -218.591 417.706 -315.262 521.164C-411.933 624.621 -379.015 776.029 -278.354 868.445Z" fill="#B6B928"/>
<path d="M1448.32 1253.45C1548.98 1345.86 1692.38 1325.58 1794.84 1217.43C1897.3 1109.29 1876.75 940.084 1757.93 870.152C1639.1 800.22 1508.08 802.706 1411.41 906.164C1314.74 1009.62 1347.66 1161.03 1448.32 1253.45Z" fill="#B6B928"/>
<path d="M1375.92 101.603C1391.42 110.113 1410.61 110.853 1421.99 96.7611C1433.37 82.6696 1431.2 61.9906 1417.14 50.5731C1403.07 39.1556 1383.49 44.5924 1371.06 55.4148C1358.63 66.2372 1360.42 93.0924 1375.92 101.603Z" fill="#4F4F4F"/>
<path d="M1014.19 -401.192C1100.46 -331.158 1113.76 -204.274 1043.9 -117.789C974.04 -31.3039 881.814 62.2146 824.188 154.212C766.562 246.21 619.275 264.484 541.493 183.999C463.712 103.514 433.876 -2.95892 511.781 -99.4039C589.685 -195.849 654.942 -276.636 731.492 -371.405C808.043 -466.174 927.918 -471.226 1014.19 -401.192Z" fill="#B6B928"/>
</g>
</svg>
