<?xml version="1.0" encoding="UTF-8"?>
<!DOCTYPE svg PUBLIC "-//W3C//DTD SVG 1.1//EN" "http://www.w3.org/Graphics/SVG/1.1/DTD/svg11.dtd">
<!-- Creator: CorelDRAW X7 -->
<svg xmlns="http://www.w3.org/2000/svg" xml:space="preserve" width="450px" height="450px" version="1.1" style="shape-rendering:geometricPrecision; text-rendering:geometricPrecision; image-rendering:optimizeQuality; fill-rule:evenodd; clip-rule:evenodd"
viewBox="0 0 450 450"
 xmlns:xlink="http://www.w3.org/1999/xlink">
 <defs>
  <style type="text/css">
   <![CDATA[
    .fil0 {fill:#F0F0F0}
   ]]>
  </style>
 </defs>
 <g id="Layer_x0020_1">
  <metadata id="CorelCorpID_0Corel-Layer"/>
  <g id="_2249325316320">
   <path class="fil0" d="M170 377c7,-1 29,23 42,-38 5,-24 9,-55 9,-82 -8,-4 -7,-16 -1,-22 14,-10 29,8 20,20 -3,4 -3,0 -2,13 2,27 7,91 25,108 2,3 6,5 11,5 5,0 11,-3 13,-3l1 8c-7,3 -9,6 -19,5 -8,0 -11,-3 -15,-8 -10,-17 -16,-58 -18,-78 0,-7 -1,-14 -2,-22 0,-7 0,-16 -1,-23l-7 0c-2,29 -7,99 -22,123 -3,6 -6,8 -15,8 -6,1 -15,-2 -18,-5 -3,0 -1,-1 -2,2l-1 23c0,5 -1,24 0,27l123 0 -3 -52c6,-3 14,-12 18,-18 4,-5 11,-16 14,-22 -1,1 -22,29 -32,31l-2 -27c0,-2 6,-5 -1,-10l-6 -97c2,-3 10,-7 12,-10l15 -48c3,-11 7,-22 11,-32 2,-7 14,-23 14,-28l-29 -17c0,-3 5,-8 5,-11l-31 -32c0,-2 2,-6 3,-7 -1,-2 -30,-25 -31,-26 -3,2 -4,6 -7,8 -3,-1 -2,0 -5,-3 -2,-1 -3,-2 -5,-4 -3,-2 -5,-4 -8,-7 -5,-3 -15,-13 -18,-14 -2,4 -7,9 -10,13 -3,5 -30,38 -31,41l37 21c3,-2 32,-38 37,-42 -2,3 -31,42 -32,45 5,3 32,20 35,21l33 -44c-5,9 -28,42 -28,47l12 7c-3,0 -15,-6 -18,-8 -5,-2 -13,-7 -18,-9 -1,6 2,11 4,14 2,2 3,3 5,5 1,1 3,3 5,5 -5,-2 -10,-7 -12,-10 -4,-4 -6,-8 -3,-14 -2,-1 -8,-4 -10,-5 -3,-2 -6,-4 -9,-6l-20 -11 -1 2c-1,1 -1,2 -1,2 -2,3 -5,6 -8,8 -1,1 -3,2 -4,3 0,-1 5,-6 6,-8 2,-2 6,-5 7,-8l-2 -2c-2,3 -6,11 -14,14 2,-4 12,-12 12,-15 -6,-4 -19,-13 -22,-17 0,0 -1,0 -1,0l-1 1c-1,1 -1,1 -1,2l-19 25c-13,19 -8,12 -18,33 -3,5 -6,11 -8,17 -5,10 -5,7 1,16 7,9 15,20 21,29 13,18 29,41 42,59 3,4 2,5 2,10l0 39c0,9 -2,44 -1,48 5,0 6,2 5,7 -1,6 15,23 16,26 -5,4 -12,4 -17,2 0,-5 0,-10 -1,-15 0,-6 0,-10 -4,-11 0,6 -2,23 -1,28zm95 -5c2,5 12,5 16,3 0,-5 0,-22 4,-26l0 -9c-8,0 -5,6 -5,8 1,3 -7,14 -9,16l-5 6c-1,1 0,0 -1,2zm-3 -217c-3,0 -16,-10 -20,-13 -5,-4 -4,-1 -14,-2 -15,-2 -33,-11 -45,-20 -3,-2 -6,-5 -9,-7 -2,1 -15,12 -16,13 2,1 5,2 7,2l18 8c24,12 43,35 42,64l-1 11c4,-1 11,-5 15,-7 5,-2 11,-5 15,-7 7,-2 27,-12 31,-13 -1,-3 -21,-16 -23,-17 1,-8 37,-55 41,-63 -2,1 -28,34 -31,38l-10 13z"/>
   <path class="fil0" d="M338 329c-1,3 -6,10 -7,13 -12,21 -23,41 -31,65 -2,6 -7,25 -6,31 15,1 12,1 12,-6 1,-11 3,-22 6,-33 5,-21 14,-44 25,-63 2,-2 3,-6 6,-7 9,-4 4,-13 -2,-14 -5,0 -12,6 -4,14 0,0 1,0 1,0 0,0 0,0 0,0z"/>
   <path class="fil0" d="M153 438l12 0c2,-19 -19,-65 -29,-83 -5,-8 -10,-17 -15,-24 2,-3 5,-3 5,-8 0,-4 -3,-6 -5,-7 -8,-1 -12,8 -6,13 2,1 2,0 3,2 1,1 2,3 3,4 16,28 27,59 31,92 0,3 0,8 1,11z"/>
   <path class="fil0" d="M169 384l0 -8c-5,-2 -13,-10 -16,-13 -5,-6 -12,-15 -14,-17 3,8 14,24 21,31 2,2 6,7 9,7z"/>
  </g>
 </g>
</svg>
