<?xml version="1.0" encoding="UTF-8"?>
<!DOCTYPE svg PUBLIC "-//W3C//DTD SVG 1.1//EN" "http://www.w3.org/Graphics/SVG/1.1/DTD/svg11.dtd">
<!-- Creator: CorelDRAW X7 -->
<svg xmlns="http://www.w3.org/2000/svg" xml:space="preserve" width="500px" height="100px" version="1.1" style="shape-rendering:geometricPrecision; text-rendering:geometricPrecision; image-rendering:optimizeQuality; fill-rule:evenodd; clip-rule:evenodd"
viewBox="0 0 500 100"
 xmlns:xlink="http://www.w3.org/1999/xlink">
 <defs>
  <style type="text/css">
   <![CDATA[
    .fil0 {fill:#48484D}
   ]]>
  </style>
 </defs>
 <g id="Layer_x0020_1">
  <metadata id="CorelCorpID_0Corel-Layer"/>
  <path class="fil0" d="M88 18l-61 0c-2,0 -4,2 -4,4l0 7c0,2 2,4 4,4l61 0c3,0 4,-2 4,-4l0 -7c0,-2 -1,-4 -4,-4l0 0zm0 39l-61 0c-1,0 -2,0 -3,1 -1,1 -1,2 -1,3l0 7c0,2 2,4 4,4l61 0c3,0 4,-2 4,-4l0 -7c0,-2 -1,-4 -4,-4l0 0zm-27 19l-34 0c-1,0 -2,1 -3,2 -1,0 -1,1 -1,2l0 7c0,2 2,4 4,4l34 0c3,0 4,-2 4,-4l0 -7c0,-2 -1,-4 -4,-4l0 0zm31 -38l-65 0c-1,0 -2,0 -3,1 -1,1 -1,1 -1,3l0 7c0,2 2,3 4,3l65 0c2,0 4,-1 4,-3l0 -7c0,-3 -2,-4 -4,-4l0 0zm0 0z"/>
  <path class="fil0" d="M164 34c-2,-2 -4,-4 -7,-5 -2,-1 -5,-1 -8,-1 -2,0 -5,0 -7,1 -2,1 -3,2 -5,4l0 -2c0,0 0,-1 0,-1 -1,-1 -1,-1 -2,-1l-9 0c0,0 -1,0 -1,1 -1,0 -1,1 -1,1l0 58c0,0 0,1 1,1 0,1 1,1 1,1l9 0c1,0 1,0 2,-1 0,0 1,-1 1,-1l0 -20c1,1 2,2 4,3 2,1 5,1 7,1 3,0 6,0 8,-1 3,-1 5,-3 7,-5 2,-2 4,-4 5,-7 1,-3 1,-6 1,-9 0,-4 0,-7 -1,-10 -2,-3 -3,-5 -5,-7l0 0zm-8 21c0,1 -1,2 -2,3 -2,2 -4,3 -7,3 -1,0 -2,0 -4,-1 -1,0 -2,-1 -3,-2 -1,-1 -1,-2 -2,-3 -1,-3 -1,-6 0,-8 1,-2 1,-3 2,-4 1,0 2,-1 3,-2 2,0 3,-1 4,-1 2,0 3,1 4,1 1,1 2,1 3,2 1,1 2,2 2,4 1,2 1,5 0,8l0 0zm61 -26l-8 0c-1,0 -2,0 -2,1 -1,0 -1,1 -1,1l0 2c-1,-2 -2,-3 -4,-3 -2,-2 -5,-2 -7,-2 -6,0 -11,2 -15,6 -2,2 -4,4 -5,7 -1,3 -2,6 -2,10 0,3 1,6 2,9 1,3 3,5 5,7 4,4 9,7 15,7 2,0 5,-1 7,-2 2,-1 3,-2 4,-3l0 1c0,1 0,1 1,2 0,0 1,0 2,0l8 0c1,0 1,0 2,0 0,-1 0,-1 0,-2l0 -38c0,-1 0,-2 0,-2 -1,-1 -1,-1 -2,-1l0 0zm-12 26c0,1 -1,2 -2,3 -1,1 -2,2 -3,2 -2,1 -5,1 -7,0 -2,0 -3,-1 -4,-2 0,-1 -1,-2 -2,-3 -1,-3 -1,-6 0,-8 1,-2 2,-3 2,-4 1,0 2,-1 4,-2 2,-1 5,-1 7,0 1,1 2,1 3,2 1,1 2,2 2,4 1,2 1,5 0,8l0 0zm99 -5c-2,-2 -3,-2 -5,-3 -1,-1 -3,-1 -5,-2l-6 -1c-2,0 -3,-1 -4,-1 0,-1 -1,-1 -1,-2 0,-1 1,-1 1,-2 2,0 3,-1 4,-1 2,0 4,1 5,1 2,1 3,2 4,3 2,1 4,1 5,-1l3 -3c1,-1 1,-2 1,-3 0,0 0,-1 -1,-2 -1,-1 -3,-2 -6,-3 -3,-2 -7,-2 -11,-2 -2,0 -5,0 -7,1 -3,1 -5,2 -6,3 -2,1 -3,3 -4,4 -1,2 -1,4 -1,6 0,4 1,7 3,9 2,2 5,3 8,4l7 2c2,0 3,0 5,1 0,0 1,1 1,2 0,1 -1,1 -1,2 -1,0 -3,1 -4,1 -2,0 -4,-1 -6,-1 -1,-1 -3,-2 -4,-3 -1,-1 -2,-1 -2,-1 -1,-1 -2,0 -3,0l-4 3c-1,1 -1,2 -1,4 0,1 1,2 3,4 5,3 10,4 16,4 3,0 6,0 8,-1 2,0 4,-1 6,-3 2,-1 3,-3 4,-5 1,-1 2,-3 2,-5 0,-2 -1,-4 -1,-6 -1,-1 -2,-2 -3,-3l0 0zm37 10c0,-1 -1,-1 -1,-1 -1,0 -2,0 -3,0 -1,1 -2,1 -3,2 -1,0 -1,-1 -1,-1 -1,0 -1,0 -2,0 0,-1 0,-1 -1,-1 0,-1 0,-2 0,-3l0 -16 11 0c1,0 2,0 2,0 0,-1 1,-1 1,-2l0 -7c0,0 0,-1 -1,-1 0,-1 -1,-1 -2,-1l-11 0 0 -11c0,0 0,-1 -1,-1 0,-1 -1,-1 -1,-1l-9 0c-1,0 -1,0 -2,1 0,0 0,1 0,1l0 11 -5 0c-1,0 -2,0 -2,1 0,0 -1,1 -1,1l0 7c0,1 1,1 1,2 0,0 1,1 2,1l5 0 0 18c0,2 0,5 1,7 1,1 2,3 3,4 2,1 3,2 5,3 2,0 4,0 5,0 3,0 5,0 8,-1 2,0 4,-2 5,-3 1,-1 1,-3 0,-4l-3 -5zm48 -31l-9 0c0,0 -1,0 -1,1 -1,0 -1,1 -1,1l0 2c-1,-2 -3,-3 -4,-3 -2,-2 -5,-2 -8,-2 -5,0 -11,2 -15,6 -2,2 -3,4 -4,7 -2,3 -2,6 -2,10 0,3 0,6 2,9 1,3 2,5 4,7 4,4 10,7 15,7 3,0 5,-1 8,-2 1,-1 3,-2 4,-3l0 1c0,1 0,1 1,2 0,0 1,0 1,0l9 0c1,0 2,-1 2,-2l0 -38c0,-1 0,-2 0,-2 -1,-1 -1,-1 -2,-1l0 0zm-12 26c0,1 -1,2 -2,3 -1,1 -2,2 -3,2 -1,1 -3,1 -4,1 -1,0 -2,0 -4,-1 -1,0 -2,-1 -3,-2 -1,-1 -1,-2 -2,-3 -1,-3 -1,-6 0,-8 1,-2 1,-3 2,-4 1,0 2,-1 3,-2 2,0 3,-1 4,-1 1,0 3,1 4,1 1,1 2,1 3,2 1,1 2,2 2,4 1,2 1,5 0,8l0 0zm59 4l-5 -3c-1,-1 -1,-1 -2,-1 -1,0 -2,1 -2,1 -1,2 -2,3 -4,4 -1,1 -3,1 -5,1 -2,0 -3,-1 -5,-2 -2,-1 -3,-3 -4,-4 0,-2 0,-3 0,-4 0,-2 0,-3 0,-4 1,-2 2,-3 2,-4 1,-1 2,-1 4,-2 1,0 2,-1 3,-1 2,0 4,1 5,2 2,0 3,2 4,3 0,1 1,1 2,1 1,1 1,0 2,0l5 -4c1,-1 1,-1 2,-2 0,-1 0,-1 -1,-2 -1,-3 -4,-6 -7,-7 -4,-2 -7,-3 -12,-3 -3,0 -6,0 -9,2 -3,1 -5,2 -7,4 -2,3 -4,5 -5,8 -2,5 -2,12 0,18 1,2 3,5 5,7 4,4 10,6 16,6 5,0 8,-1 12,-2 3,-2 6,-5 8,-8 0,0 0,-1 0,-2 -1,-1 -1,-1 -2,-2l0 0zm47 9l-14 -20 12 -15c0,-1 0,-2 0,-3 0,0 -1,-1 -2,-1l-10 0c0,0 -1,0 -1,0 -1,1 -1,1 -1,2l-10 13 -2 0 0 -31c0,-1 0,-1 -1,-2 0,0 -1,0 -1,0l-9 0c-1,0 -1,0 -2,0 0,1 0,1 0,2l0 57c0,1 0,1 0,2 1,0 1,0 2,0l9 0c0,0 1,0 1,0 1,-1 1,-1 1,-2l0 -15 2 0 11 16c0,1 1,1 3,1l9 0c2,0 2,0 3,-1 0,-1 0,-2 0,-3l0 0zm-217 -39l-9 0c-1,0 -2,0 -2,1 -1,0 -1,1 -1,1l-7 27 -2 0 -8 -27c0,0 0,-1 -1,-1 0,-1 -1,-1 -1,-1l-10 0c-2,0 -2,0 -3,1 0,1 0,2 0,3l13 37c0,1 0,1 0,2 1,0 2,0 2,0l5 0 0 2 -1 3c0,1 -1,2 -2,3 -1,0 -2,1 -3,1 -1,0 -2,-1 -3,-1 0,0 -1,-1 -2,-1 0,-1 -1,-1 -2,-1l0 0c-1,0 -2,1 -2,1l-3 5c-2,2 -1,3 0,4 1,1 3,3 6,3 2,1 4,1 7,1 4,0 8,-1 11,-3 3,-3 5,-6 6,-10l14 -46c1,-1 1,-2 0,-3 0,0 0,-1 -2,-1l0 0zm0 0z"/>
 </g>
</svg>
