<svg id="Capa_1" enable-background="new 0 0 512 512" height="512" viewBox="0 0 512 512" width="512" xmlns="http://www.w3.org/2000/svg" xmlns:xlink="http://www.w3.org/1999/xlink"><linearGradient id="SVGID_1_" gradientUnits="userSpaceOnUse" x1="256" x2="256" y1="497" y2="30"><stop offset="0" stop-color="#addcff"/><stop offset=".5028" stop-color="#eaf6ff"/><stop offset="1" stop-color="#eaf6ff"/></linearGradient><linearGradient id="SVGID_2_" gradientUnits="userSpaceOnUse" x1="256" x2="256" y1="512" y2="0"><stop offset="0" stop-color="#5558ff"/><stop offset="1" stop-color="#00c0ff"/></linearGradient><g><g><g><path d="m316 90c0-33.091-26.924-60-60-60s-60 26.909-60 60 26.924 60 60 60 60-26.909 60-60zm30 60h-90-90c-16.569 0-30 14.432-30 31v31c0 16.568 13.431 30 30 30h180c16.569 0 30-13.432 30-30v-31c0-16.568-13.431-31-30-31zm-30 186.799c0-5.1-2.701-9.901-7.2-12.6-4.2-3-9.901-3.299-14.399-.901-23.401 11.4-53.401 11.4-76.802 0-4.799-2.398-10.199-2.098-14.399.902-4.499 2.699-7.2 7.5-7.2 12.6v30l-14.399 5.7 8.544 94.5 65.855 30 62.586-24.75 11.513-99.75-14.099-5.7z" fill="url(#SVGID_1_)"/></g></g><g><g><path d="m376 45c0-24.9-20.098-45-45-45h-150c-24.901 0-45 20.1-45 45v136h240zm-120 90c-24.901 0-45-20.102-45-45 0-24.9 20.099-45 45-45s45 20.1 45 45c0 24.898-20.099 45-45 45zm144.902 266-70.803-28.5c-4.799 36.3-36.299 64.5-74.099 64.5s-69.3-27.9-74.399-64.501l-70.502 28.501c-39.6 15.898-65.099 53.398-65.099 96 0 8.399 6.599 15 15 15h390c8.401 0 15-6.601 15-15 0-42.602-25.499-80.102-65.098-96zm-144.902-39c66.274 0 120-53.726 120-120v-30h-240v30c0 66.274 53.726 120 120 120z" fill="url(#SVGID_2_)"/></g></g></g></svg>